# xmcd CD database file
#
# Track frame offsets:
#	150
#	14586
#	26398
#	43978
#	63003
#	78116
#	92832
#	106817
#	120853
#	132438
#	142578
#	153860
#	167415
#
# Disc length: 2400 seconds
#
# Revision: 0
# Processed by: cddbd v1.5.1PL0 Copyright (c) Steve Scherf et al.
# Submitted via: CDex 1.51
#
DISCID=8e095e0d
DTITLE=Cool - Jazz - Piano
DYEAR=2003
DGENRE=Jazz
TTITLE0=Nat King Cole - If i should lose you
TTITLE1=Dave Brubeck - Singin' in the rain
TTITLE2=Earl Hines - Rosetta
TTITLE3=Mary Lou Williams - Round about midniht
TTITLE4=Bud Powell - All god's chillun got rhythm
TTITLE5=Thelonious Monk - Ask me now
TTITLE6=Fats Waller - I ain't got nobody
TTITLE7=Nat King Cole - Penthouse serenade
TTITLE8=Mary Lou Williams - Just you, just me
TTITLE9=Bud Powell - Dusk at Saudi
TTITLE10=Dave Brubeck - Spring is here
TTITLE11=Eroll Garner - I only have eyes for you
TTITLE12=Jelly Roll Morton - Mamie's blues
EXTD=YEAR: 2003
EXTT0=
EXTT1=
EXTT2=
EXTT3=
EXTT4=
EXTT5=
EXTT6=
EXTT7=
EXTT8=
EXTT9=
EXTT10=
EXTT11=
EXTT12=
PLAYORDER=
